<svg width="224" height="52" viewBox="0 0 224 52" fill="none" xmlns="http://www.w3.org/2000/svg">
<path opacity="0.2" d="M0 0H224L0 49.5047V0Z" fill="url(#paint0_angular)" fill-opacity="0.3"/>
<path d="M50.2122 10.5691C47.6907 9.57304 45.0462 9.756 42.5041 11.5652L39.1626 22.8883C43.5428 26.5271 52.6189 33.821 53.8818 33.886C55.4603 33.9673 58.6993 32.9712 60.8313 31.162C62.9634 29.3527 64.3164 26.1408 63.7834 22.8883C63.2504 19.6357 61.1183 17.0946 56.9773 15.0008C52.8362 12.9069 52.7337 11.5652 50.2122 10.5691Z" fill="#4FC7F3"/>
<path d="M55.7267 32.9712C55.8292 35.2887 54.8862 38.3176 52.9387 40.6961C50.9912 43.0745 46.7681 44.6602 43.9186 44.3756C43.0781 46.3677 40.6796 48.8275 37.4405 47.2419C34.2015 45.6563 35.4315 41.6719 36.2925 40.6961C36.7432 40.1854 36.9259 39.9949 36.9831 39.9469C36.6177 38.9659 35.8023 36.4913 35.411 34.2926C34.919 31.5279 38.8756 24.0673 43.7341 24.2909C48.5927 24.5145 50.7042 27.0963 51.9752 28.2753C53.2462 29.4544 54.5377 31.0807 55.7267 32.9712Z" fill="#F8AB31"/>
<path d="M26.4319 8.21104C30.0072 6.6498 33.1423 9.21391 34.263 10.6911C35.657 10.4065 38.9371 10.0081 40.9051 10.6911C43.3651 11.5449 44.9231 12.7443 46.1326 16.7287C47.3421 20.7131 46.0711 23.4168 45.2101 24.6162C44.3491 25.8156 40.7001 28.3363 38.1991 29.434C37.2082 29.8463 35.37 31.9213 35.944 36.9234C35.0965 37.9807 33.8059 39.0886 32.049 39.578C28.3999 40.5944 25.8169 38.4396 24.4229 36.7523C23.0289 35.0651 22.8854 32.3817 23.6439 30.2472C24.4024 28.1127 26.0629 26.3441 27.2519 25.409C28.4409 24.4739 27.9899 22.1768 27.8874 20.9977C27.7849 19.8186 27.5799 19.8186 25.1199 17.8671C22.6599 15.9156 21.9629 10.1626 26.4319 8.21104Z" fill="#EC325A"/>
<rect x="36.6411" y="16.8719" width="1.96802" height="3.6998" rx="0.984011" fill="black"/>
<rect x="41.7251" y="28.5812" width="1.96802" height="3.6998" rx="0.984011" fill="black"/>
<rect x="48.9822" y="28.5812" width="1.96802" height="3.6998" rx="0.984011" fill="black"/>
<rect x="43.365" y="16.8719" width="1.96802" height="3.6998" rx="0.984011" fill="black"/>
<rect x="51.7703" y="18.173" width="1.96802" height="3.6998" rx="0.984011" fill="black"/>
<rect x="58.8223" y="18.173" width="1.96802" height="3.6998" rx="0.984011" fill="black"/>
<path d="M100.993 23.5699C100.993 27.6597 99.6924 30.4163 97.0921 31.8399L101.499 36.913H95.4257L92.2412 32.9014L92.2288 32.8891V32.8768L92.2165 32.8644C89.3858 32.8644 87.2134 32.0703 85.6993 30.4822C84.1934 28.894 83.4404 26.5817 83.4404 23.5453C83.4404 20.5417 84.1893 18.25 85.6869 16.6701C87.1928 15.0819 89.3775 14.2878 92.2412 14.2878C95.113 14.2878 97.2896 15.0737 98.7708 16.6454C100.252 18.2171 100.993 20.5253 100.993 23.5699ZM88.5752 23.5699C88.5752 27.059 89.789 28.8035 92.2165 28.8035C93.4508 28.8035 94.3642 28.3797 94.9567 27.5321C95.5574 26.6846 95.8578 25.3638 95.8578 23.5699C95.8578 21.7678 95.5533 20.4389 94.9444 19.5831C94.3436 18.719 93.4426 18.287 92.2412 18.287C89.7972 18.287 88.5752 20.048 88.5752 23.5699ZM112.41 18.3858C112.83 18.3858 113.229 18.4187 113.607 18.4845L113.879 18.5339L113.447 23.0886C113.052 22.9898 112.505 22.9404 111.805 22.9404C110.752 22.9404 109.987 23.1832 109.509 23.6687C109.032 24.146 108.793 24.8372 108.793 25.7424V32.6176H103.967V18.6326H107.559L108.312 20.8668H108.547C108.95 20.1262 109.509 19.5296 110.225 19.077C110.949 18.6162 111.678 18.3858 112.41 18.3858ZM120.692 32.6176H115.866V18.6326H120.692V32.6176ZM115.743 15.1518C115.743 14.4277 115.944 13.8887 116.348 13.5349C116.751 13.181 117.401 13.0041 118.298 13.0041C119.195 13.0041 119.849 13.1851 120.26 13.5472C120.672 13.9093 120.878 14.4442 120.878 15.1518C120.878 16.5672 120.018 17.2749 118.298 17.2749C116.594 17.2749 115.743 16.5672 115.743 15.1518Z" fill="white"/>
<defs>
<radialGradient id="paint0_angular" cx="0" cy="0" r="1" gradientUnits="userSpaceOnUse" gradientTransform="translate(96.4 53.8364) rotate(81.7167) scale(27.7648 63.5431)">
<stop offset="0.226088" stop-color="#9AA3A6"/>
<stop offset="0.75461" stop-color="#768C95"/>
</radialGradient>
</defs>
</svg>
