<svg width="694" height="638" viewBox="0 0 694 638" fill="none" xmlns="http://www.w3.org/2000/svg">
<path d="M411.906 150.864C387.202 141.108 361.294 142.9 336.39 160.619L303.654 271.515C346.566 307.153 435.484 378.589 447.856 379.226C463.32 380.022 495.053 370.266 515.94 352.547C536.827 334.828 550.082 303.371 544.86 271.515C539.639 239.66 518.751 214.773 478.182 194.266C437.613 173.76 436.609 160.619 411.906 150.864Z" fill="#4FC7F3"/>
<path d="M465.932 370.267C466.936 392.964 457.697 422.629 438.618 445.923C419.538 469.217 378.165 484.746 350.249 481.959C342.015 501.47 318.516 525.561 286.784 510.032C255.052 494.502 267.102 455.48 275.537 445.923C279.952 440.921 281.742 439.055 282.302 438.586C278.723 428.978 270.734 404.742 266.901 383.208C262.081 356.131 300.843 283.063 348.441 285.253C396.04 287.443 416.726 312.728 429.178 324.276C441.63 335.823 454.283 351.751 465.932 370.267Z" fill="#F8AB31"/>
<path d="M178.934 127.769C213.96 112.478 244.675 137.591 255.654 152.058C269.311 149.271 301.445 145.369 320.725 152.058C344.826 160.42 360.09 172.167 371.939 211.19C383.788 250.212 371.336 276.692 362.901 288.438C354.466 300.185 318.717 324.873 294.215 335.624C284.507 339.661 266.499 359.984 272.122 408.974C263.819 419.329 251.176 430.179 233.963 434.972C198.214 444.927 172.908 423.823 159.251 407.298C145.594 390.773 144.189 364.493 151.62 343.588C159.051 322.683 175.318 305.362 186.967 296.203C198.616 287.045 194.197 264.547 193.193 253C192.189 241.452 190.18 241.452 166.08 222.339C141.979 203.226 135.151 146.882 178.934 127.769Z" fill="#EC325A"/>
<rect x="278.951" y="212.592" width="19.2805" height="36.2353" rx="9.64024" fill="black"/>
<rect x="328.759" y="327.272" width="19.2805" height="36.2353" rx="9.64024" fill="black"/>
<rect x="399.855" y="327.272" width="19.2805" height="36.2353" rx="9.64023" fill="black"/>
<rect x="344.826" y="212.592" width="19.2805" height="36.2353" rx="9.64024" fill="black"/>
<rect x="427.169" y="225.335" width="19.2805" height="36.2353" rx="9.64023" fill="black"/>
<rect x="496.258" y="225.335" width="19.2805" height="36.2353" rx="9.64023" fill="black"/>
</svg>
